<svg xmlns="http://www.w3.org/2000/svg" xmlns:xlink="http://www.w3.org/1999/xlink" width="499.999" height="445.273"><path d="M303.832 203.226a7.647 7.647 0 0 1-7.058 7.941h-61.468a7.647 7.647 0 0 1-7.941-7.058v-45.88a7.647 7.647 0 0 1 7.058-7.941h61.468a7.647 7.647 0 0 1 7.941 7.058zm109.112 46.468a7.647 7.647 0 0 1-7.058 7.941h-61.468a7.647 7.647 0 0 1-7.941-7.058V204.99a7.647 7.647 0 0 1 7.058-7.941h61.468a7.647 7.647 0 0 1 7.941 7.058zm-109.112 47.057a7.647 7.647 0 0 1-7.058 7.941h-61.468a7.647 7.647 0 0 1-7.941-7.058v-45.88a7.647 7.647 0 0 1 7.058-7.941h61.468a7.647 7.647 0 0 1 7.941 7.058z" fill="#76bc2d"/><path d="M194.72 156.757a7.353 7.353 0 0 1-6.764 7.647h-63.232a7.647 7.647 0 0 1-7.941-6.764v-47.645a7.647 7.647 0 0 1 7.058-7.353h61.468c6.47 0 9.411 3.235 9.411 7.941z" fill="#86d633"/><path d="M194.72 249.694a7.353 7.353 0 0 1-6.764 7.941h-63.232a7.647 7.647 0 0 1-7.941-7.941v-46.468a7.647 7.647 0 0 1 7.058-7.647h61.468c6.47 0 9.411 3.235 9.411 7.647zm0 93.819a7.353 7.353 0 0 1-6.764 7.941h-63.232a7.647 7.647 0 0 1-7.941-7.058v-47.645a7.353 7.353 0 0 1 7.058-7.647h61.468c6.47 0 9.411 2.941 9.411 7.647z" fill="#76bc2d"/><g fill="#999"><use xlink:href="#B"/><use xlink:href="#B" opacity=".5"/><use xlink:href="#C"/><use xlink:href="#C" opacity=".5"/></g><path d="M499.999 16.764v36.763H.023V16.764A16.764 16.764 0 0 1 16.787 0H483.53a16.764 16.764 0 0 1 16.47 16.764z" fill="#949494"/><g fill="#999"><use xlink:href="#D"/><use xlink:href="#D" opacity=".5"/><use xlink:href="#E"/><use xlink:href="#E" opacity=".5"/></g><path d="M.023 428.509v-36.763h499.976v36.763a16.764 16.764 0 0 1-16.764 16.764H16.787A16.764 16.764 0 0 1 .023 428.509z" fill="#949494"/><defs ><path id="B" d="M16.787 0h37.939v105.877a8.53 8.53 0 0 1-8.529 8.529H8.552a8.53 8.53 0 0 1-8.529-8.529V17.646C-.219 13.049 1.44 8.555 4.61 5.218S12.184-.006 16.787 0z"/><path id="C" d="M445.296 0h37.939c4.446 0 8.71 1.766 11.854 4.91s4.91 7.408 4.91 11.854v88.231a8.53 8.53 0 0 1-8.529 8.529h-37.939a8.53 8.53 0 0 1-8.529-8.529V0z"/><path id="D" d="M8.552 330.867h37.939a8.53 8.53 0 0 1 8.529 8.529v105.877H16.787c-4.446 0-8.71-1.766-11.854-4.91s-4.91-7.408-4.91-11.854v-90.584a8.53 8.53 0 0 1 8.529-7.058z"/><path id="E" d="M453.531 330.867h37.939a8.53 8.53 0 0 1 8.529 8.529v88.231c0 4.446-1.766 8.71-4.91 11.854s-7.408 4.91-11.854 4.91h-37.939V337.925a8.53 8.53 0 0 1 8.235-7.058z"/></defs></svg>